<svg xmlns="http://www.w3.org/2000/svg" width="59" height="40.812" viewBox="0 0 59 40.812">
  <path id="Free_Delivery" data-name="Free Delivery" d="M52.051,59.684a4.776,4.776,0,1,1,4.776-4.776,4.776,4.776,0,0,1-4.776,4.776ZM64,41.9V52.342A1.956,1.956,0,0,1,62.044,54.3H59.417a7.392,7.392,0,0,0-14.734,0H26.669a7.392,7.392,0,0,0-14.734,0h-.95a1.956,1.956,0,0,1-1.956-1.956V42.076H16.5A2.8,2.8,0,0,0,19.289,39a2.879,2.879,0,0,0-2.9-2.523H7.195a2.195,2.195,0,1,1,0-4.39H24.52A2.8,2.8,0,0,0,27.3,29.018,2.879,2.879,0,0,0,24.4,26.5H9.029V21.588a2.716,2.716,0,0,1,2.716-2.716H44.792a2.716,2.716,0,0,1,2.716,2.716v8.278H57.893a1.221,1.221,0,0,1,1.092.675l4.423,8.845A5.612,5.612,0,0,1,64,41.9Zm-2.443-.747-4.42-8.839H47.509v9.551H61.557ZM24.078,54.908A4.776,4.776,0,1,0,19.3,59.684a4.776,4.776,0,0,0,4.776-4.776Z" transform="translate(-5 -18.872)" fill="#f9f9f9"/>
</svg>
