<svg xmlns="http://www.w3.org/2000/svg" width="31.066" height="35.505" viewBox="0 0 31.066 35.505">
  <path id="Path_37027" data-name="Path 37027" d="M6.909-6.4h6.657V12.457a5.342,5.342,0,0,1-1.63,3.918A5.342,5.342,0,0,1,8.019,18H-11.952a5.342,5.342,0,0,1-3.918-1.63,5.342,5.342,0,0,1-1.63-3.918V-6.4h6.657V-8.624a8.552,8.552,0,0,1,2.6-6.276,8.552,8.552,0,0,1,6.276-2.6,8.552,8.552,0,0,1,6.276,2.6,8.552,8.552,0,0,1,2.6,6.276ZM-6.4-8.624V-6.4H2.471V-8.624a4.265,4.265,0,0,0-1.318-3.121,4.265,4.265,0,0,0-3.121-1.318,4.265,4.265,0,0,0-3.121,1.318A4.265,4.265,0,0,0-6.4-8.624ZM3.511-.788A1.6,1.6,0,0,0,4.69-.3,1.6,1.6,0,0,0,5.869-.788a1.6,1.6,0,0,0,.485-1.179,1.6,1.6,0,0,0-.485-1.179A1.6,1.6,0,0,0,4.69-3.631a1.6,1.6,0,0,0-1.179.485,1.6,1.6,0,0,0-.485,1.179A1.6,1.6,0,0,0,3.511-.788ZM-9.8-.788A1.6,1.6,0,0,0-8.624-.3,1.6,1.6,0,0,0-7.445-.788,1.6,1.6,0,0,0-6.96-1.967a1.6,1.6,0,0,0-.485-1.179,1.6,1.6,0,0,0-1.179-.485A1.6,1.6,0,0,0-9.8-3.146a1.6,1.6,0,0,0-.485,1.179A1.6,1.6,0,0,0-9.8-.788Z" transform="translate(17.5 17.5)" fill="#f9f9f9"/>
</svg>
