<svg xmlns="http://www.w3.org/2000/svg" width="58.268" height="48.503" viewBox="0 0 58.268 48.503">
  <g id="ICO" transform="translate(-1.419 -9.561)">
    <path id="Path_37024" data-name="Path 37024" d="M51.453,23A22.718,22.718,0,0,0,10,22.954c-4.618.608-8.212,4.07-8.547,8.356-.02.2-.033.413-.034.649v0h0v0q0,.425.042.838c0,.011,0,.021,0,.032.028.266.067.529.119.787,0,.018.01.036.013.054.053.251.115.5.189.741,0,.015.011.029.016.044.077.246.163.488.263.724a.178.178,0,0,0,.009.019,9.856,9.856,0,0,0,7.579,5.722A22.815,22.815,0,0,0,25.562,53.846a5.059,5.059,0,1,0,.173-2.414A20.413,20.413,0,0,1,11.446,39V25.818a20.324,20.324,0,0,1,38.215-.891v16.15c5.538,0,10.027-4.079,10.027-9.113C59.687,27.487,56.134,23.77,51.453,23Z" fill="#f9f9f9"/>
    <path id="Path_37025" data-name="Path 37025" d="M41.568,23.653A13.347,13.347,0,1,0,54.916,37,13.348,13.348,0,0,0,41.568,23.653Zm0,24.3A10.949,10.949,0,1,1,52.517,37,10.961,10.961,0,0,1,41.568,47.949Z" transform="translate(-10.729 -5.641)" fill="#f9f9f9"/>
    <path id="Path_37026" data-name="Path 37026" d="M44.977,39.851H39.73v2.4h7.642l0-8.473h-2.4Z" transform="translate(-15.336 -9.693)" fill="#f9f9f9"/>
  </g>
</svg>
