<svg xmlns="http://www.w3.org/2000/svg" width="24" height="15" viewBox="0 0 24 15">
  <g id="Group_603" data-name="Group 603" transform="translate(-194.5 -149.496)">
    <path id="Line_18" data-name="Line 18" d="M12,1H0A1,1,0,0,1-1,0,1,1,0,0,1,0-1H12a1,1,0,0,1,1,1A1,1,0,0,1,12,1Z" transform="translate(195.5 163.496)" fill="#474747"/>
    <path id="Line_17" data-name="Line 17" d="M22,1H0A1,1,0,0,1-1,0,1,1,0,0,1,0-1H22a1,1,0,0,1,1,1A1,1,0,0,1,22,1Z" transform="translate(195.5 157.496)" fill="#474747"/>
    <path id="Line_16" data-name="Line 16" d="M20,1H0A1,1,0,0,1-1,0,1,1,0,0,1,0-1H20a1,1,0,0,1,1,1A1,1,0,0,1,20,1Z" transform="translate(195.5 150.496)" fill="#474747"/>
  </g>
</svg>
